<?xml version="1.0" encoding="UTF-8" standalone="no"?>
<!-- Created with Inkscape (http://www.inkscape.org/) -->

<svg
   width="210mm"
   height="297mm"
   viewBox="0 0 210 297"
   version="1.1"
   id="svg1"
   xml:space="preserve"
   inkscape:version="1.4.3 (1:1.4.3+202512261034+0d15f75042)"
   sodipodi:docname="tessellator.svg"
   xmlns:inkscape="http://www.inkscape.org/namespaces/inkscape"
   xmlns:sodipodi="http://sodipodi.sourceforge.net/DTD/sodipodi-0.dtd"
   xmlns="http://www.w3.org/2000/svg"
   xmlns:svg="http://www.w3.org/2000/svg"><sodipodi:namedview
     id="namedview1"
     pagecolor="#ffffff"
     bordercolor="#666666"
     borderopacity="1.0"
     inkscape:showpageshadow="2"
     inkscape:pageopacity="0.0"
     inkscape:pagecheckerboard="0"
     inkscape:deskcolor="#d1d1d1"
     inkscape:document-units="mm"
     inkscape:zoom="0.71874805"
     inkscape:cx="286.60947"
     inkscape:cy="721.39326"
     inkscape:window-width="2536"
     inkscape:window-height="1385"
     inkscape:window-x="2560"
     inkscape:window-y="0"
     inkscape:window-maximized="1"
     inkscape:current-layer="layer1" /><defs
     id="defs1"><marker
       style="overflow:visible"
       id="ArrowWide"
       refX="0"
       refY="0"
       orient="auto-start-reverse"
       inkscape:stockid="Wide arrow"
       markerWidth="1"
       markerHeight="1"
       viewBox="0 0 1 1"
       inkscape:isstock="true"
       inkscape:collect="always"
       preserveAspectRatio="xMidYMid"><path
         style="fill:none;stroke:context-stroke;stroke-width:1;stroke-linecap:butt"
         d="M 3,-3 0,0 3,3"
         transform="rotate(180,0.125,0)"
         sodipodi:nodetypes="ccc"
         id="path10" /></marker><marker
       style="overflow:visible"
       id="ArrowWide-7"
       refX="0"
       refY="0"
       orient="auto-start-reverse"
       inkscape:stockid="Wide arrow"
       markerWidth="1"
       markerHeight="1"
       viewBox="0 0 1 1"
       inkscape:isstock="true"
       inkscape:collect="always"
       preserveAspectRatio="xMidYMid"><path
         style="fill:none;stroke:context-stroke;stroke-width:1;stroke-linecap:butt"
         d="M 3,-3 0,0 3,3"
         transform="rotate(180,0.125,0)"
         sodipodi:nodetypes="ccc"
         id="path10-5" /></marker><marker
       style="overflow:visible"
       id="ArrowWide-1"
       refX="0"
       refY="0"
       orient="auto-start-reverse"
       inkscape:stockid="Wide arrow"
       markerWidth="1"
       markerHeight="1"
       viewBox="0 0 1 1"
       inkscape:isstock="true"
       inkscape:collect="always"
       preserveAspectRatio="xMidYMid"><path
         style="fill:none;stroke:context-stroke;stroke-width:1;stroke-linecap:butt"
         d="M 3,-3 0,0 3,3"
         transform="rotate(180,0.125,0)"
         sodipodi:nodetypes="ccc"
         id="path10-2" /></marker><marker
       style="overflow:visible"
       id="ArrowWide-0"
       refX="0"
       refY="0"
       orient="auto-start-reverse"
       inkscape:stockid="Wide arrow"
       markerWidth="1"
       markerHeight="1"
       viewBox="0 0 1 1"
       inkscape:isstock="true"
       inkscape:collect="always"
       preserveAspectRatio="xMidYMid"><path
         style="fill:none;stroke:context-stroke;stroke-width:1;stroke-linecap:butt"
         d="M 3,-3 0,0 3,3"
         transform="rotate(180,0.125,0)"
         sodipodi:nodetypes="ccc"
         id="path10-6" /></marker><marker
       style="overflow:visible"
       id="ArrowWide-9"
       refX="0"
       refY="0"
       orient="auto-start-reverse"
       inkscape:stockid="Wide arrow"
       markerWidth="1"
       markerHeight="1"
       viewBox="0 0 1 1"
       inkscape:isstock="true"
       inkscape:collect="always"
       preserveAspectRatio="xMidYMid"><path
         style="fill:none;stroke:context-stroke;stroke-width:1;stroke-linecap:butt"
         d="M 3,-3 0,0 3,3"
         transform="rotate(180,0.125,0)"
         sodipodi:nodetypes="ccc"
         id="path10-20" /></marker><marker
       style="overflow:visible"
       id="ArrowWide-9-2"
       refX="0"
       refY="0"
       orient="auto-start-reverse"
       inkscape:stockid="Wide arrow"
       markerWidth="1"
       markerHeight="1"
       viewBox="0 0 1 1"
       inkscape:isstock="true"
       inkscape:collect="always"
       preserveAspectRatio="xMidYMid"><path
         style="fill:none;stroke:context-stroke;stroke-width:1;stroke-linecap:butt"
         d="M 3,-3 0,0 3,3"
         transform="rotate(180,0.125,0)"
         sodipodi:nodetypes="ccc"
         id="path10-20-2" /></marker><marker
       style="overflow:visible"
       id="ArrowWide-9-1"
       refX="0"
       refY="0"
       orient="auto-start-reverse"
       inkscape:stockid="Wide arrow"
       markerWidth="1"
       markerHeight="1"
       viewBox="0 0 1 1"
       inkscape:isstock="true"
       inkscape:collect="always"
       preserveAspectRatio="xMidYMid"><path
         style="fill:none;stroke:context-stroke;stroke-width:1;stroke-linecap:butt"
         d="M 3,-3 0,0 3,3"
         transform="rotate(180,0.125,0)"
         sodipodi:nodetypes="ccc"
         id="path10-20-29" /></marker><marker
       style="overflow:visible"
       id="ArrowWide-0-8"
       refX="0"
       refY="0"
       orient="auto-start-reverse"
       inkscape:stockid="Wide arrow"
       markerWidth="1"
       markerHeight="1"
       viewBox="0 0 1 1"
       inkscape:isstock="true"
       inkscape:collect="always"
       preserveAspectRatio="xMidYMid"><path
         style="fill:none;stroke:context-stroke;stroke-width:1;stroke-linecap:butt"
         d="M 3,-3 0,0 3,3"
         transform="rotate(180,0.125,0)"
         sodipodi:nodetypes="ccc"
         id="path10-6-4" /></marker><marker
       style="overflow:visible"
       id="ArrowWide-0-8-0"
       refX="0"
       refY="0"
       orient="auto-start-reverse"
       inkscape:stockid="Wide arrow"
       markerWidth="1"
       markerHeight="1"
       viewBox="0 0 1 1"
       inkscape:isstock="true"
       inkscape:collect="always"
       preserveAspectRatio="xMidYMid"><path
         style="fill:none;stroke:context-stroke;stroke-width:1;stroke-linecap:butt"
         d="M 3,-3 0,0 3,3"
         transform="rotate(180,0.125,0)"
         sodipodi:nodetypes="ccc"
         id="path10-6-4-6" /></marker><marker
       style="overflow:visible"
       id="ArrowWide-0-8-5"
       refX="0"
       refY="0"
       orient="auto-start-reverse"
       inkscape:stockid="Wide arrow"
       markerWidth="1"
       markerHeight="1"
       viewBox="0 0 1 1"
       inkscape:isstock="true"
       inkscape:collect="always"
       preserveAspectRatio="xMidYMid"><path
         style="fill:none;stroke:context-stroke;stroke-width:1;stroke-linecap:butt"
         d="M 3,-3 0,0 3,3"
         transform="rotate(180,0.125,0)"
         sodipodi:nodetypes="ccc"
         id="path10-6-4-5" /></marker><marker
       style="overflow:visible"
       id="ArrowWide-1-9"
       refX="0"
       refY="0"
       orient="auto-start-reverse"
       inkscape:stockid="Wide arrow"
       markerWidth="1"
       markerHeight="1"
       viewBox="0 0 1 1"
       inkscape:isstock="true"
       inkscape:collect="always"
       preserveAspectRatio="xMidYMid"><path
         style="fill:none;stroke:context-stroke;stroke-width:1;stroke-linecap:butt"
         d="M 3,-3 0,0 3,3"
         transform="rotate(180,0.125,0)"
         sodipodi:nodetypes="ccc"
         id="path10-2-3" /></marker></defs><g
     inkscape:label="Layer 1"
     inkscape:groupmode="layer"
     id="layer1"><rect
       style="opacity:1;fill:#f9f9f9;stroke:none;stroke-width:1;stroke-linecap:round;stroke-dasharray:none;stroke-dashoffset:21.5013"
       id="rect3"
       width="147.86119"
       height="113.19708"
       x="32.604111"
       y="15.733826"
       inkscape:export-filename="filling.png"
       inkscape:export-xdpi="96"
       inkscape:export-ydpi="96" /><rect
       style="fill:#f9f9f9;stroke:none;stroke-width:1;stroke-linecap:round;stroke-dasharray:none;stroke-dashoffset:21.5013"
       id="rect3-4"
       width="147.86119"
       height="113.19708"
       x="29.234974"
       y="157.90894"
       inkscape:export-filename="pattern.png"
       inkscape:export-xdpi="96"
       inkscape:export-ydpi="96" /><path
       style="fill:#000000"
       d="m 31.49517,129.72739 -0.590004,-0.41325 V 72.188452 15.062765 l 0.511773,-0.273892 0.511773,-0.273893 h 74.382698 74.38271 l 0.51177,0.273893 0.51178,0.273892 -0.004,57.074544 -0.004,57.074541 -0.25087,0.39688 -0.25088,0.39687 -74.56132,0.0675 -74.561316,0.0675 z m 93.86624,-14.93533 V 101.56289 H 79.191626 33.021833 v 13.22917 13.22917 h 46.169793 46.169784 z m 54.23959,0 v -13.22917 h -26.06146 -26.06146 v 13.22917 13.22917 H 153.53954 179.601 Z M 68.872875,86.481645 V 73.38477 l -16.867187,-0.0679 -18.983855,-0.0679 v 13.232669 13.232665 l 18.983855,-0.0679 16.867187,-0.0679 z m 92.868745,0 V 73.38477 L 119.34214,73.31788 71.121834,73.25099 v 13.230652 13.230655 l 48.220306,-0.0669 42.39948,-0.0669 z m 17.85938,0 V 73.252479 h -5.95313 -9.65729 V 86.481645 99.71081 h 9.65729 5.95313 z M 111.07391,58.038938 V 44.942063 H 72.047876 33.021833 v 13.096875 13.096874 h 36.909376 41.142701 z m 68.52709,0 V 44.942063 H 146.39579 113.19058 V 58.038938 71.135812 H 146.39579 179.601 Z M 56.834334,29.728522 V 16.631647 H 44.928083 33.021833 v 13.096875 13.096874 h 11.90625 11.906251 z m 94.456246,0 V 16.631647 H 105.12079 58.951 v 13.096875 13.096874 h 46.16979 46.16979 z m 28.31042,0 V 16.631647 h -13.09688 -13.09687 v 13.096875 13.096874 h 13.09687 13.09688 z"
       id="path1"
       sodipodi:nodetypes="ccccccccccccccccccccccccccccccccccccccccccccccccccccccccccccccccccccccccccccccccccccccccccccccccccccccccccc" /><text
       xml:space="preserve"
       style="font-size:18.9726px;line-height:1.25;font-family:sans-serif;stroke-width:0.264583"
       x="45.213116"
       y="93.038155"
       id="text3"><tspan
         sodipodi:role="line"
         id="tspan3"
         x="45.213116"
         y="93.038155"
         style="stroke-width:0.264583">B</tspan></text><text
       xml:space="preserve"
       style="font-size:18.9726px;line-height:1.25;font-family:sans-serif;stroke-width:0.264583"
       x="46.821278"
       y="235.28737"
       id="text3-7"><tspan
         sodipodi:role="line"
         id="tspan3-8"
         x="46.821278"
         y="235.28737"
         style="stroke-width:0.264583">Y</tspan></text><text
       xml:space="preserve"
       style="font-size:18.9726px;line-height:1.25;font-family:sans-serif;stroke-width:0.264583"
       x="33.856693"
       y="207.50612"
       id="text3-3"><tspan
         sodipodi:role="line"
         id="tspan3-1"
         x="33.856693"
         y="207.50612"
         style="stroke-width:0.264583">Z</tspan></text><text
       xml:space="preserve"
       style="font-size:18.9726px;line-height:1.25;font-family:sans-serif;stroke-width:0.264583"
       x="147.56981"
       y="122.18372"
       id="text1"><tspan
         sodipodi:role="line"
         x="147.56981"
         y="122.18372"
         style="stroke-width:0.264583"
         id="tspan2">A</tspan></text><text
       xml:space="preserve"
       style="font-size:18.9726px;line-height:1.25;font-family:sans-serif;stroke-width:0.264583"
       x="69.966354"
       y="264.39151"
       id="text1-5"><tspan
         sodipodi:role="line"
         x="69.966354"
         y="264.39151"
         style="stroke-width:0.264583"
         id="tspan2-47">X</tspan></text><text
       xml:space="preserve"
       style="font-size:18.9726px;line-height:1.25;font-family:sans-serif;stroke-width:0.264583"
       x="69.966354"
       y="179.46025"
       id="text1-5-6"><tspan
         sodipodi:role="line"
         x="69.966354"
         y="179.46025"
         style="stroke-width:0.264583"
         id="tspan2-47-8">X</tspan></text><text
       xml:space="preserve"
       style="font-size:18.9726px;line-height:1.25;font-family:sans-serif;stroke-width:0.264583"
       x="165.26241"
       y="93.038155"
       id="text1-8"><tspan
         sodipodi:role="line"
         x="165.26241"
         y="93.038155"
         style="stroke-width:0.264583"
         id="tspan2-4">A</tspan></text><text
       xml:space="preserve"
       style="font-size:18.9726px;line-height:1.25;font-family:sans-serif;stroke-width:0.264583"
       x="145.47612"
       y="64.677116"
       id="text1-8-6"><tspan
         sodipodi:role="line"
         x="145.47612"
         y="64.677116"
         style="stroke-width:0.264583"
         id="tspan2-4-1">A</tspan></text><text
       xml:space="preserve"
       style="font-size:18.9726px;line-height:1.25;font-family:sans-serif;stroke-width:0.264583"
       x="160.47908"
       y="36.316078"
       id="text1-8-6-4"><tspan
         sodipodi:role="line"
         x="160.47908"
         y="36.316078"
         style="stroke-width:0.264583"
         id="tspan2-4-1-4">A</tspan></text><text
       xml:space="preserve"
       style="font-size:18.9726px;line-height:1.25;font-family:sans-serif;stroke-width:0.264583"
       x="66.457977"
       y="64.677116"
       id="text3-1"><tspan
         sodipodi:role="line"
         id="tspan3-0"
         x="66.457977"
         y="64.677116"
         style="stroke-width:0.264583">B</tspan></text><text
       xml:space="preserve"
       style="font-size:18.9726px;line-height:1.25;font-family:sans-serif;stroke-width:0.264583"
       x="37.848461"
       y="35.860527"
       id="text3-1-6"><tspan
         sodipodi:role="line"
         id="tspan3-0-5"
         x="37.848461"
         y="35.860527"
         style="stroke-width:0.264583">B</tspan></text><path
       style="fill:#000000"
       d="m 28.278342,271.80986 -0.275694,-0.51514 0.06795,-56.9091 0.06795,-56.9091 0.396875,-0.25088 0.396875,-0.25087 74.612498,0 h 74.6125 l 0.39688,0.25087 0.39687,0.25088 0.0679,56.9091 0.0679,56.9091 -0.27569,0.51514 -0.27569,0.51514 H 103.54479 28.554035 Z m 94.385088,-14.63226 -0.0686,-13.03073 -46.235936,-0.0669 -46.235937,-0.0669 v 13.09762 13.09761 h 46.304576 46.304577 z m 54.30324,-0.0674 V 244.012 l -26.12761,0.0674 -26.1276,0.0674 -0.0686,13.03073 -0.0686,13.03073 h 26.19624 26.19625 z M 75.366667,228.80104 V 215.70417 H 52.744792 30.122917 v 13.09687 13.09688 h 22.621875 22.621875 z m 94.456253,0 v -13.09687 h -46.1698 -46.169786 v 13.09687 13.09688 h 46.169786 46.1698 z m 7.14375,0 v -13.09687 h -2.51355 -2.51354 v 13.09687 13.09688 h 2.51354 2.51355 z M 51.81875,200.49062 V 187.39375 H 40.970834 30.122917 v 13.09687 13.09688 H 40.970834 51.81875 Z m 94.45625,0 V 187.39375 H 100.10521 53.935417 v 13.09687 13.09688 H 100.10521 146.275 Z m 30.69167,0 v -13.09687 h -14.2875 -14.2875 v 13.09687 13.09688 h 14.2875 14.2875 z M 122.72708,172.18021 V 159.08333 H 76.425 30.122917 v 13.09688 13.09687 H 76.425 122.72708 Z m 54.23959,0 v -13.09688 h -26.19375 -26.19375 v 12.92049 12.92049 l 0.17639,0.17638 0.17638,0.17639 h 26.01737 26.01736 z"
       id="path3" /><path
       style="fill:#ff0000;stroke:#ff0000;stroke-width:1.2;stroke-linecap:butt;stroke-linejoin:miter;stroke-dasharray:none;stroke-opacity:1;marker-end:url(#ArrowWide)"
       d="m 108.01321,257.1776 h 29.30044"
       id="path2" /><path
       style="fill:#ff0000;stroke:#ff0000;stroke-width:1.2;stroke-linecap:butt;stroke-linejoin:miter;stroke-dasharray:none;stroke-opacity:1;marker-end:url(#ArrowWide-7)"
       d="m 62.833114,228.80104 h 29.30044"
       id="path2-6" /><path
       style="fill:#ff0000;stroke:#ff0000;stroke-width:1.2;stroke-linecap:butt;stroke-linejoin:miter;stroke-dasharray:none;stroke-opacity:1;marker-end:url(#ArrowWide-1)"
       d="M 47.60863,200.45826 H 76.90907"
       id="path2-9" /><path
       style="fill:#ff0000;stroke:#ff0000;stroke-width:1.2;stroke-linecap:butt;stroke-linejoin:miter;stroke-dasharray:none;stroke-opacity:1;marker-end:url(#ArrowWide-1-9)"
       d="m 108.01321,171.54518 h 29.30044"
       id="path2-9-5" /><path
       style="fill:#ff0000;stroke:#ff0000;stroke-width:1.2;stroke-linecap:butt;stroke-linejoin:miter;stroke-dasharray:none;stroke-opacity:1;marker-end:url(#ArrowWide-0)"
       d="m 110.71119,114.79206 h 29.30044"
       id="path2-1" /><path
       style="fill:#ff0000;stroke:#ff0000;stroke-width:1.2;stroke-linecap:butt;stroke-linejoin:miter;stroke-dasharray:none;stroke-opacity:1;marker-end:url(#ArrowWide-0-8)"
       d="M 141.16016,107.2687 62.906089,93.038155"
       id="path2-1-3"
       sodipodi:nodetypes="cc" /><path
       style="fill:#ff0000;stroke:#ff0000;stroke-width:1.2;stroke-linecap:butt;stroke-linejoin:miter;stroke-dasharray:none;stroke-opacity:1;marker-end:url(#ArrowWide-0-8-0)"
       d="M 168.94896,81.014418 90.694892,66.783873"
       id="path2-1-3-0"
       sodipodi:nodetypes="cc" /><path
       style="fill:#ff0000;stroke:#ff0000;stroke-width:1.2;stroke-linecap:butt;stroke-linejoin:miter;stroke-dasharray:none;stroke-opacity:1;marker-end:url(#ArrowWide-0-8-5)"
       d="M 130.68793,52.057335 52.433857,37.826791"
       id="path2-1-3-6"
       sodipodi:nodetypes="cc" /><path
       style="fill:#ff0000;stroke:#ff0000;stroke-width:1.2;stroke-linecap:butt;stroke-linejoin:miter;stroke-dasharray:none;stroke-opacity:1;marker-end:url(#ArrowWide-9)"
       d="m 62.906089,86.122605 h 29.30044"
       id="path2-7" /><path
       style="fill:#ff0000;stroke:#ff0000;stroke-width:1.2;stroke-linecap:butt;stroke-linejoin:miter;stroke-dasharray:none;stroke-opacity:1;marker-end:url(#ArrowWide-9-2)"
       d="M 96.423691,58.038938 H 125.72413"
       id="path2-7-7" /><path
       style="fill:#ff0000;stroke:#ff0000;stroke-width:1.2;stroke-linecap:butt;stroke-linejoin:miter;stroke-dasharray:none;stroke-opacity:1;marker-end:url(#ArrowWide-9-1)"
       d="M 53.09555,29.400528 H 82.39599"
       id="path2-7-9" /></g></svg>
